<?xml version="1.0" encoding="UTF-8" standalone="no"?>
<!-- Created with Inkscape (http://www.inkscape.org/) -->

<svg
   xmlns:dc="http://purl.org/dc/elements/1.1/"
   xmlns:cc="http://creativecommons.org/ns#"
   xmlns:rdf="http://www.w3.org/1999/02/22-rdf-syntax-ns#"
   xmlns:svg="http://www.w3.org/2000/svg"
   xmlns="http://www.w3.org/2000/svg"
   xmlns:sodipodi="http://sodipodi.sourceforge.net/DTD/sodipodi-0.dtd"
   xmlns:inkscape="http://www.inkscape.org/namespaces/inkscape"
   width="161.92221mm"
   height="118.29441mm"
   viewBox="0 0 161.92221 118.29441"
   version="1.1"
   id="svg8"
   inkscape:version="0.92.4 (5da689c313, 2019-01-14)"
   sodipodi:docname="network.svg">
  <defs
     id="defs2" />
  <sodipodi:namedview
     id="base"
     pagecolor="#ffffff"
     bordercolor="#666666"
     borderopacity="1.0"
     inkscape:pageopacity="0.0"
     inkscape:pageshadow="2"
     inkscape:zoom="0.35"
     inkscape:cx="1225.9947"
     inkscape:cy="132.11993"
     inkscape:document-units="mm"
     inkscape:current-layer="layer1"
     showgrid="false"
     inkscape:window-width="2400"
     inkscape:window-height="1271"
     inkscape:window-x="2391"
     inkscape:window-y="-9"
     inkscape:window-maximized="1" />
  <metadata
     id="metadata5">
    <rdf:RDF>
      <cc:Work
         rdf:about="">
        <dc:format>image/svg+xml</dc:format>
        <dc:type
           rdf:resource="http://purl.org/dc/dcmitype/StillImage" />
        <dc:title></dc:title>
      </cc:Work>
    </rdf:RDF>
  </metadata>
  <g
     inkscape:label="Ebene 1"
     inkscape:groupmode="layer"
     id="layer1"
     transform="translate(363.68729,-5.0194602)">
    <g
       id="g878"
       transform="matrix(0.26458333,0,0,0.26458333,-363.68713,-16.794377)"
       style="fill:#fffff1;fill-opacity:1">
      <g
         id="g820"
         style="fill:#fffff1;fill-opacity:1">
	<g
   id="Wi-Fi"
   style="fill:#fffff1;fill-opacity:1">
		<g
   id="g817"
   style="fill:#fffff1;fill-opacity:1">
			<path
   id="path815"
   d="m 305.994,417.769 c -30.85,0 -55.887,25.037 -55.887,55.887 0,30.85 25.038,55.887 55.887,55.887 30.849,0 55.887,-25.037 55.887,-55.887 0,-30.85 -25.038,-55.887 -55.887,-55.887 z m 299.442,-195.4 C 530.697,133.434 421.549,82.446 305.994,82.446 c -115.555,0 -224.685,50.988 -299.443,139.923 -9.93,11.811 -8.402,29.434 3.428,39.363 5.234,4.396 11.587,6.558 17.939,6.558 7.973,0 15.891,-3.391 21.423,-9.967 64.084,-76.248 157.639,-119.989 256.652,-119.989 99.013,0 192.568,43.741 256.651,119.971 5.533,6.576 13.45,9.967 21.424,9.967 6.353,0 12.724,-2.143 17.958,-6.558 11.811,-9.912 13.34,-27.553 3.41,-39.345 z M 305.994,194.22 c -82.545,0 -160.489,36.419 -213.879,99.926 -9.929,11.811 -8.402,29.434 3.428,39.363 5.234,4.396 11.605,6.558 17.958,6.558 7.973,0 15.891,-3.391 21.405,-9.967 42.716,-50.838 105.086,-79.993 171.089,-79.993 66.003,0 128.372,29.155 171.107,79.993 5.533,6.595 13.45,9.967 21.404,9.967 6.353,0 12.724,-2.143 17.959,-6.558 11.829,-9.929 13.356,-27.57 3.428,-39.363 C 466.483,230.64 388.539,194.22 305.994,194.22 Z m 0,111.774 c -49.553,0 -96.331,21.852 -128.335,59.948 -9.93,11.811 -8.402,29.434 3.428,39.363 5.234,4.396 11.605,6.557 17.958,6.557 7.973,0 15.891,-3.39 21.405,-9.966 21.368,-25.429 52.552,-40.016 85.544,-40.016 32.992,0 64.177,14.587 85.544,40.016 5.533,6.595 13.45,9.966 21.405,9.966 6.353,0 12.724,-2.142 17.958,-6.557 11.83,-9.93 13.357,-27.553 3.428,-39.363 -32.005,-38.096 -78.783,-59.948 -128.335,-59.948 z"
   inkscape:connector-curvature="0"
   style="fill:#fffff1;fill-opacity:1" />

		</g>

	</g>

</g>
      <g
         id="g822"
         style="fill:#fffff1;fill-opacity:1">
</g>
      <g
         id="g824"
         style="fill:#fffff1;fill-opacity:1">
</g>
      <g
         id="g826"
         style="fill:#fffff1;fill-opacity:1">
</g>
      <g
         id="g828"
         style="fill:#fffff1;fill-opacity:1">
</g>
      <g
         id="g830"
         style="fill:#fffff1;fill-opacity:1">
</g>
      <g
         id="g832"
         style="fill:#fffff1;fill-opacity:1">
</g>
      <g
         id="g834"
         style="fill:#fffff1;fill-opacity:1">
</g>
      <g
         id="g836"
         style="fill:#fffff1;fill-opacity:1">
</g>
      <g
         id="g838"
         style="fill:#fffff1;fill-opacity:1">
</g>
      <g
         id="g840"
         style="fill:#fffff1;fill-opacity:1">
</g>
      <g
         id="g842"
         style="fill:#fffff1;fill-opacity:1">
</g>
      <g
         id="g844"
         style="fill:#fffff1;fill-opacity:1">
</g>
      <g
         id="g846"
         style="fill:#fffff1;fill-opacity:1">
</g>
      <g
         id="g848"
         style="fill:#fffff1;fill-opacity:1">
</g>
      <g
         id="g850"
         style="fill:#fffff1;fill-opacity:1">
</g>
    </g>
  </g>
</svg>
