<?xml version="1.0" encoding="UTF-8" standalone="no"?>
<!-- Created with Inkscape (http://www.inkscape.org/) -->

<svg
   xmlns:dc="http://purl.org/dc/elements/1.1/"
   xmlns:cc="http://creativecommons.org/ns#"
   xmlns:rdf="http://www.w3.org/1999/02/22-rdf-syntax-ns#"
   xmlns:svg="http://www.w3.org/2000/svg"
   xmlns="http://www.w3.org/2000/svg"
   xmlns:sodipodi="http://sodipodi.sourceforge.net/DTD/sodipodi-0.dtd"
   xmlns:inkscape="http://www.inkscape.org/namespaces/inkscape"
   width="180.62222mm"
   height="127.00001mm"
   viewBox="0 0 180.62222 127.00001"
   version="1.1"
   id="svg8"
   inkscape:version="0.92.4 (5da689c313, 2019-01-14)"
   sodipodi:docname="ram.svg">
  <defs
     id="defs2" />
  <sodipodi:namedview
     id="base"
     pagecolor="#ffffff"
     bordercolor="#666666"
     borderopacity="1.0"
     inkscape:pageopacity="0.0"
     inkscape:pageshadow="2"
     inkscape:zoom="0.35"
     inkscape:cx="1144.1905"
     inkscape:cy="-294.28571"
     inkscape:document-units="mm"
     inkscape:current-layer="layer1"
     showgrid="false"
     inkscape:window-width="2400"
     inkscape:window-height="1271"
     inkscape:window-x="2391"
     inkscape:window-y="-9"
     inkscape:window-maximized="1" />
  <metadata
     id="metadata5">
    <rdf:RDF>
      <cc:Work
         rdf:about="">
        <dc:format>image/svg+xml</dc:format>
        <dc:type
           rdf:resource="http://purl.org/dc/dcmitype/StillImage" />
        <dc:title></dc:title>
      </cc:Work>
    </rdf:RDF>
  </metadata>
  <g
     inkscape:label="Ebene 1"
     inkscape:groupmode="layer"
     id="layer1"
     transform="translate(342.04326,56.029764)">
    <g
       id="g835"
       transform="matrix(0.35277779,0,0,0.35277779,-342.04326,-56.029764)"
       style="fill:#ffffff;fill-opacity:1">
      <path
         id="path815"
         d="M 181,60 H 91 v 150 h 90 z M 151,180 H 121 V 90 h 30 z m 0,0"
         inkscape:connector-curvature="0"
         style="fill:#ffffff;fill-opacity:1" />
      <path
         id="path817"
         d="m 301,60 h -90 v 150 h 90 z M 271,180 H 241 V 90 h 30 z m 0,0"
         inkscape:connector-curvature="0"
         style="fill:#ffffff;fill-opacity:1" />
      <path
         id="path819"
         d="m 421,60 h -90 v 150 h 90 z M 391,180 H 361 V 90 h 30 z m 0,0"
         inkscape:connector-curvature="0"
         style="fill:#ffffff;fill-opacity:1" />
      <path
         id="path821"
         d="m 30,360 h 452 v -60 h 30 V 150 h -30 v -30 h 30 V 0 H 0 v 120 h 30 v 30 H 0 V 300 H 30 Z M 30,180 H 60 V 90 H 30 V 30 h 452 v 60 h -30 v 90 h 30 v 90 h -30 v 60 h -31 v -60 h -30 v 60 h -30 v -60 h -30 v 60 h -30 v -60 h -30 v 60 h -30 v -60 h -30 v 60 h -30 v -60 h -30 v 60 H 121 V 270 H 91 v 60 H 60 V 270 H 30 Z m 0,0"
         inkscape:connector-curvature="0"
         style="fill:#ffffff;fill-opacity:1" />
    </g>
  </g>
</svg>
