<?xml version="1.0" encoding="UTF-8" standalone="no"?>
<!-- Created with Inkscape (http://www.inkscape.org/) -->

<svg
   xmlns:dc="http://purl.org/dc/elements/1.1/"
   xmlns:cc="http://creativecommons.org/ns#"
   xmlns:rdf="http://www.w3.org/1999/02/22-rdf-syntax-ns#"
   xmlns:svg="http://www.w3.org/2000/svg"
   xmlns="http://www.w3.org/2000/svg"
   xmlns:sodipodi="http://sodipodi.sourceforge.net/DTD/sodipodi-0.dtd"
   xmlns:inkscape="http://www.inkscape.org/namespaces/inkscape"
   width="93.133331mm"
   height="127mm"
   viewBox="0 0 93.133331 127"
   version="1.1"
   id="svg8"
   inkscape:version="0.92.4 (5da689c313, 2019-01-14)"
   sodipodi:docname="storage.svg">
  <defs
     id="defs2" />
  <sodipodi:namedview
     id="base"
     pagecolor="#ffffff"
     bordercolor="#666666"
     borderopacity="1.0"
     inkscape:pageopacity="0.0"
     inkscape:pageshadow="2"
     inkscape:zoom="0.35"
     inkscape:cx="1378.8571"
     inkscape:cy="-240"
     inkscape:document-units="mm"
     inkscape:current-layer="layer1"
     showgrid="false"
     inkscape:window-width="2400"
     inkscape:window-height="1271"
     inkscape:window-x="2391"
     inkscape:window-y="-9"
     inkscape:window-maximized="1" />
  <metadata
     id="metadata5">
    <rdf:RDF>
      <cc:Work
         rdf:about="">
        <dc:format>image/svg+xml</dc:format>
        <dc:type
           rdf:resource="http://purl.org/dc/dcmitype/StillImage" />
        <dc:title></dc:title>
      </cc:Work>
    </rdf:RDF>
  </metadata>
  <g
     inkscape:label="Ebene 1"
     inkscape:groupmode="layer"
     id="layer1"
     transform="translate(404.13214,41.666668)">
    <g
       id="Harddisk"
       transform="matrix(2.1166667,0,0,2.1166667,-425.29881,-45.900001)"
       style="fill:#ffffff;fill-opacity:1">
      <path
         id="path815"
         d="M 51,2 H 13 a 3,3 0 0 0 -3,3 v 54 a 3,3 0 0 0 3,3 h 38 a 3,3 0 0 0 3,-3 V 5 A 3,3 0 0 0 51,2 Z m 1,57 a 1,1 0 0 1 -1,1 H 13 A 1,1 0 0 1 12,59 V 5 a 1,1 0 0 1 1,-1 h 38 a 1,1 0 0 1 1,1 z"
         inkscape:connector-curvature="0"
         style="fill:#ffffff;fill-opacity:1" />
      <path
         id="path817"
         d="m 22.6,37.158 -3.963,3.963 a 3,3 0 0 0 4.242,4.243 l 5.716,-5.715 a 17,17 0 1 0 -6,-2.491 z M 21.464,43.95 A 1.0002026,1.0002026 0 1 1 20.05,42.535 l 9.193,-9.192 1.414,1.415 z M 32,8 a 15,15 0 1 1 -1.66,29.9 l 2.438,-2.438 a 1,1 0 0 0 0,-1.414 L 29.95,31.222 a 1,1 0 0 0 -1.414,0 L 24.047,35.71 A 14.995,14.995 0 0 1 32,8 Z"
         inkscape:connector-curvature="0"
         style="fill:#ffffff;fill-opacity:1" />
      <path
         id="path819"
         d="m 32,28 a 5,5 0 1 0 -5,-5 5.006,5.006 0 0 0 5,5 z m 0,-8 a 3,3 0 1 1 -3,3 3,3 0 0 1 3,-3 z"
         inkscape:connector-curvature="0"
         style="fill:#ffffff;fill-opacity:1" />
      <path
         id="path821"
         d="m 16,11 a 3,3 0 1 0 -3,-3 3,3 0 0 0 3,3 z m 0,-4 a 1,1 0 1 1 -1,1 1,1 0 0 1 1,-1 z"
         inkscape:connector-curvature="0"
         style="fill:#ffffff;fill-opacity:1" />
      <path
         id="path823"
         d="m 48,5 a 3,3 0 1 0 3,3 3,3 0 0 0 -3,-3 z m 0,4 a 1,1 0 1 1 1,-1 1,1 0 0 1 -1,1 z"
         inkscape:connector-curvature="0"
         style="fill:#ffffff;fill-opacity:1" />
      <path
         id="path825"
         d="m 16,42 a 3,3 0 1 0 -3,-3 3,3 0 0 0 3,3 z m 0,-4 a 1,1 0 1 1 -1,1 1,1 0 0 1 1,-1 z"
         inkscape:connector-curvature="0"
         style="fill:#ffffff;fill-opacity:1" />
      <path
         id="path827"
         d="m 48,36 a 3,3 0 1 0 3,3 3,3 0 0 0 -3,-3 z m 0,4 a 1,1 0 1 1 1,-1 1,1 0 0 1 -1,1 z"
         inkscape:connector-curvature="0"
         style="fill:#ffffff;fill-opacity:1" />
      <path
         id="path829"
         d="M 49,53.184 V 48 A 1,1 0 0 0 48,47 H 16 a 1,1 0 0 0 -1,1 v 5.184 A 2.993,2.993 0 0 0 16,59 h 32 a 2.993,2.993 0 0 0 1,-5.816 z m -2,0 A 2.947,2.947 0 0 0 45.184,57 H 38.139 V 49 H 47 Z M 36.139,49 v 8 H 18.816 A 2.947,2.947 0 0 0 17,53.184 V 49 Z M 15,56 a 1,1 0 1 1 1,1 1,1 0 0 1 -1,-1 z m 33,1 a 1,1 0 1 1 1,-1 1,1 0 0 1 -1,1 z"
         inkscape:connector-curvature="0"
         style="fill:#ffffff;fill-opacity:1" />
    </g>
  </g>
</svg>
