<svg height="512" viewBox="0 0 64 64" width="512" xmlns="http://www.w3.org/2000/svg"><path d="m53 5v54a2.006 2.006 0 0 1 -2 2h-38a2.006 2.006 0 0 1 -2-2v-54a2.006 2.006 0 0 1 2-2h38a2.006 2.006 0 0 1 2 2zm-3 3a2 2 0 1 0 -2 2 2.006 2.006 0 0 0 2-2zm0 31a2 2 0 1 0 -2 2 2.006 2.006 0 0 0 2-2zm0 17a2.006 2.006 0 0 0 -2-2v-6h-32v6a2 2 0 0 0 0 4h32a2.006 2.006 0 0 0 2-2zm-2-33a16 16 0 1 0 -23.8 13.97l-4.86 4.86a2 2 0 0 0 2.83 2.83l6.1-6.1a16 16 0 0 0 19.73-15.56zm-30-15a2 2 0 1 0 -2 2 2.006 2.006 0 0 0 2-2zm0 31a2 2 0 1 0 -2 2 2.006 2.006 0 0 0 2-2z" fill="#c0ab91"/><g fill="#cd2a00"><circle cx="48" cy="8" r="2"/><circle cx="48" cy="39" r="2"/><circle cx="48" cy="56" r="2"/></g><path d="m48 48v6a2 2 0 0 0 0 4h-10.86v-10z" fill="#ffde55"/><path d="m32 7a16 16 0 1 1 -3.73 31.56l3.8-3.8-2.83-2.83-5.04 5.04a16 16 0 0 1 7.8-29.97zm4 16a4 4 0 1 0 -4 4 4 4 0 0 0 4-4z" fill="#46f8ff"/><path d="m37.14 48v10h-21.14a2 2 0 0 0 0-4v-6z" fill="#c6c5ca"/><circle cx="32" cy="23" fill="#c6c5ca" r="4"/><path d="m32.07 34.76-3.8 3.8-6.1 6.1a2 2 0 0 1 -2.83-2.83l4.86-4.86 5.04-5.04z" fill="#c6c5ca"/><circle cx="16" cy="8" fill="#cd2a00" r="2"/><circle cx="16" cy="39" fill="#cd2a00" r="2"/><circle cx="16" cy="56" fill="#cd2a00" r="2"/><path d="m51 2h-38a3 3 0 0 0 -3 3v54a3 3 0 0 0 3 3h38a3 3 0 0 0 3-3v-54a3 3 0 0 0 -3-3zm1 57a1 1 0 0 1 -1 1h-38a1 1 0 0 1 -1-1v-54a1 1 0 0 1 1-1h38a1 1 0 0 1 1 1z"/><path d="m22.6 37.158-3.963 3.963a3 3 0 0 0 4.242 4.243l5.716-5.715a17 17 0 1 0 -6-2.491zm-1.136 6.792a1 1 0 1 1 -1.414-1.415l9.193-9.192 1.414 1.415zm10.536-35.95a15 15 0 1 1 -1.66 29.9l2.438-2.438a1 1 0 0 0 0-1.414l-2.828-2.826a1 1 0 0 0 -1.414 0l-4.489 4.488a14.995 14.995 0 0 1 7.953-27.71z"/><path d="m32 28a5 5 0 1 0 -5-5 5.006 5.006 0 0 0 5 5zm0-8a3 3 0 1 1 -3 3 3 3 0 0 1 3-3z"/><path d="m16 11a3 3 0 1 0 -3-3 3 3 0 0 0 3 3zm0-4a1 1 0 1 1 -1 1 1 1 0 0 1 1-1z"/><path d="m48 5a3 3 0 1 0 3 3 3 3 0 0 0 -3-3zm0 4a1 1 0 1 1 1-1 1 1 0 0 1 -1 1z"/><path d="m16 42a3 3 0 1 0 -3-3 3 3 0 0 0 3 3zm0-4a1 1 0 1 1 -1 1 1 1 0 0 1 1-1z"/><path d="m48 36a3 3 0 1 0 3 3 3 3 0 0 0 -3-3zm0 4a1 1 0 1 1 1-1 1 1 0 0 1 -1 1z"/><path d="m49 53.184v-5.184a1 1 0 0 0 -1-1h-32a1 1 0 0 0 -1 1v5.184a2.993 2.993 0 0 0 1 5.816h32a2.993 2.993 0 0 0 1-5.816zm-2 0a2.947 2.947 0 0 0 -1.816 3.816h-7.045v-8h8.861zm-10.861-4.184v8h-17.323a2.947 2.947 0 0 0 -1.816-3.816v-4.184zm-21.139 7a1 1 0 1 1 1 1 1 1 0 0 1 -1-1zm33 1a1 1 0 1 1 1-1 1 1 0 0 1 -1 1z"/></svg>